<svg xmlns="http://www.w3.org/2000/svg" xmlns:xlink="http://www.w3.org/1999/xlink" width="250" zoomAndPan="magnify" viewBox="0 0 187.5 374.999989" height="500" preserveAspectRatio="xMidYMid meet" version="1.0"><defs><clipPath id="id1"><path d="M 100.058594 101.371094 L 145.808594 101.371094 L 145.808594 274.621094 L 100.058594 274.621094 Z M 100.058594 101.371094 " clip-rule="nonzero"/></clipPath><clipPath id="id2"><path d="M 197.796875 187.714844 L 18.464844 367.046875 L -71.199219 277.382812 L 108.132812 98.050781 Z M 197.796875 187.714844 " clip-rule="nonzero"/></clipPath><clipPath id="id3"><path d="M 0 110.75 L 77.289062 110.75 L 77.289062 265.855469 L 0 265.855469 Z M 0 110.75 " clip-rule="nonzero"/></clipPath></defs><g clip-path="url(#id1)"><g clip-path="url(#id2)"><path fill="#990000" d="M 113.671875 103.957031 C 114.929688 105.390625 116.15625 106.847656 117.347656 108.332031 C 118.542969 109.820312 119.703125 111.332031 120.828125 112.871094 C 121.953125 114.414062 123.042969 115.972656 124.097656 117.5625 C 125.152344 119.152344 126.167969 120.761719 127.152344 122.394531 C 128.136719 124.03125 129.078125 125.6875 129.988281 127.363281 C 130.894531 129.039062 131.761719 130.738281 132.59375 132.449219 C 133.425781 134.167969 134.21875 135.902344 134.96875 137.652344 C 135.722656 139.40625 136.433594 141.171875 137.109375 142.957031 C 137.78125 144.742188 138.414062 146.535156 139.003906 148.351562 C 139.597656 150.160156 140.148438 151.984375 140.65625 153.824219 C 141.167969 155.660156 141.636719 157.507812 142.058594 159.367188 C 142.488281 161.226562 142.871094 163.09375 143.214844 164.96875 C 143.554688 166.84375 143.855469 168.726562 144.109375 170.613281 C 144.367188 172.503906 144.582031 174.398438 144.753906 176.296875 C 144.929688 178.195312 145.058594 180.097656 145.140625 182 C 145.226562 183.90625 145.269531 185.8125 145.269531 187.714844 C 145.269531 189.625 145.226562 191.527344 145.140625 193.433594 C 145.058594 195.339844 144.929688 197.242188 144.753906 199.140625 C 144.582031 201.039062 144.367188 202.929688 144.109375 204.820312 C 143.855469 206.710938 143.554688 208.589844 143.214844 210.464844 C 142.871094 212.34375 142.488281 214.210938 142.058594 216.066406 C 141.636719 217.925781 141.167969 219.773438 140.65625 221.609375 C 140.148438 223.445312 139.597656 225.273438 139.003906 227.085938 C 138.414062 228.894531 137.78125 230.695312 137.109375 232.480469 C 136.433594 234.261719 135.722656 236.03125 134.96875 237.78125 C 134.21875 239.535156 133.425781 241.265625 132.59375 242.980469 C 131.761719 244.699219 130.894531 246.394531 129.988281 248.070312 C 129.078125 249.746094 128.136719 251.402344 127.152344 253.035156 C 126.167969 254.671875 125.152344 256.28125 124.097656 257.871094 C 123.042969 259.457031 121.953125 261.023438 120.828125 262.5625 C 119.703125 264.097656 118.542969 265.613281 117.347656 267.097656 C 116.15625 268.585938 114.929688 270.046875 113.671875 271.476562 C 113.339844 271.851562 112.976562 272.191406 112.582031 272.496094 C 112.183594 272.796875 111.761719 273.0625 111.3125 273.28125 C 110.863281 273.5 110.398438 273.675781 109.914062 273.800781 C 109.433594 273.929688 108.941406 274.011719 108.445312 274.046875 C 107.945312 274.074219 107.449219 274.058594 106.953125 273.992188 C 106.457031 273.929688 105.976562 273.8125 105.5 273.652344 C 105.027344 273.492188 104.574219 273.285156 104.144531 273.035156 C 103.710938 272.78125 103.304688 272.492188 102.929688 272.164062 C 102.554688 271.832031 102.21875 271.46875 101.914062 271.074219 C 101.609375 270.675781 101.347656 270.253906 101.128906 269.804688 C 100.910156 269.359375 100.734375 268.890625 100.605469 268.410156 C 100.476562 267.925781 100.398438 267.4375 100.363281 266.9375 C 100.332031 266.4375 100.351562 265.941406 100.417969 265.445312 C 100.480469 264.953125 100.597656 264.46875 100.757812 263.992188 C 100.917969 263.523438 101.125 263.066406 101.375 262.636719 C 101.625 262.203125 101.914062 261.800781 102.246094 261.425781 C 103.351562 260.167969 104.433594 258.882812 105.484375 257.574219 C 106.535156 256.265625 107.554688 254.933594 108.542969 253.578125 C 109.535156 252.226562 110.492188 250.851562 111.421875 249.453125 C 112.351562 248.054688 113.246094 246.636719 114.109375 245.199219 C 114.976562 243.761719 115.804688 242.304688 116.605469 240.828125 C 117.402344 239.351562 118.167969 237.859375 118.898438 236.351562 C 119.628906 234.839844 120.328125 233.3125 120.988281 231.773438 C 121.652344 230.230469 122.277344 228.675781 122.871094 227.105469 C 123.460938 225.539062 124.019531 223.953125 124.539062 222.359375 C 125.0625 220.765625 125.546875 219.160156 125.992188 217.542969 C 126.441406 215.925781 126.855469 214.300781 127.230469 212.664062 C 127.605469 211.03125 127.941406 209.386719 128.242188 207.738281 C 128.546875 206.085938 128.808594 204.429688 129.035156 202.765625 C 129.261719 201.105469 129.449219 199.4375 129.601562 197.769531 C 129.753906 196.097656 129.863281 194.421875 129.941406 192.746094 C 130.015625 191.070312 130.054688 189.394531 130.054688 187.714844 C 130.054688 186.039062 130.015625 184.363281 129.941406 182.6875 C 129.863281 181.011719 129.753906 179.335938 129.601562 177.667969 C 129.449219 175.996094 129.261719 174.328125 129.035156 172.667969 C 128.808594 171.003906 128.546875 169.347656 128.242188 167.699219 C 127.941406 166.046875 127.605469 164.40625 127.230469 162.769531 C 126.855469 161.132812 126.441406 159.507812 125.992188 157.890625 C 125.546875 156.273438 125.0625 154.667969 124.539062 153.074219 C 124.019531 151.480469 123.460938 149.898438 122.871094 148.328125 C 122.277344 146.757812 121.652344 145.199219 120.988281 143.660156 C 120.328125 142.117188 119.628906 140.59375 118.898438 139.082031 C 118.167969 137.574219 117.402344 136.082031 116.605469 134.605469 C 115.804688 133.128906 114.976562 131.675781 114.109375 130.234375 C 113.246094 128.796875 112.351562 127.378906 111.421875 125.980469 C 110.492188 124.585938 109.535156 123.207031 108.542969 121.855469 C 107.554688 120.5 106.535156 119.167969 105.484375 117.859375 C 104.433594 116.550781 103.351562 115.269531 102.246094 114.007812 C 101.914062 113.632812 101.625 113.230469 101.375 112.796875 C 101.125 112.363281 100.917969 111.914062 100.757812 111.4375 C 100.597656 110.96875 100.480469 110.484375 100.417969 109.988281 C 100.351562 109.492188 100.332031 108.996094 100.363281 108.496094 C 100.398438 108 100.476562 107.507812 100.605469 107.023438 C 100.734375 106.542969 100.910156 106.078125 101.128906 105.628906 C 101.347656 105.179688 101.609375 104.757812 101.914062 104.359375 C 102.21875 103.960938 102.554688 103.597656 102.929688 103.269531 C 103.304688 102.941406 103.710938 102.648438 104.144531 102.402344 C 104.574219 102.148438 105.027344 101.945312 105.5 101.78125 C 105.976562 101.621094 106.457031 101.507812 106.953125 101.441406 C 107.449219 101.375 107.945312 101.359375 108.445312 101.390625 C 108.941406 101.421875 109.433594 101.5 109.914062 101.628906 C 110.398438 101.757812 110.863281 101.933594 111.3125 102.15625 C 111.761719 102.375 112.183594 102.636719 112.582031 102.941406 C 112.976562 103.242188 113.339844 103.582031 113.671875 103.957031 Z M 113.671875 103.957031 " fill-opacity="1" fill-rule="nonzero"/></g></g><g clip-path="url(#id3)"><path fill="#990000" d="M -0.265625 110.75 C -43.214844 110.75 -77.820312 145.347656 -77.820312 188.300781 C -77.820312 231.253906 -43.214844 265.855469 -0.265625 265.855469 C 42.289062 265.855469 77.289062 231.253906 77.289062 188.300781 C 77.289062 145.347656 42.289062 110.75 -0.265625 110.75 Z M -0.265625 253.921875 C -36.453125 253.921875 -65.886719 224.492188 -65.886719 188.300781 C -65.886719 152.109375 -36.453125 122.679688 -0.265625 122.679688 C 35.925781 122.679688 65.359375 152.109375 65.359375 188.300781 C 65.359375 224.492188 35.925781 253.921875 -0.265625 253.921875 Z M -0.265625 253.921875 " fill-opacity="1" fill-rule="nonzero"/></g></svg>