<svg xmlns="http://www.w3.org/2000/svg" xmlns:xlink="http://www.w3.org/1999/xlink" width="250" zoomAndPan="magnify" viewBox="0 0 187.5 374.999989" height="500" preserveAspectRatio="xMidYMid meet" version="1.0"><defs><clipPath id="id1"><path d="M 42 101 L 87.65625 101 L 87.65625 274.941406 L 42 274.941406 Z M 42 101 " clip-rule="nonzero"/></clipPath><clipPath id="id2"><path d="M -10.125 187.941406 L 169.207031 8.609375 L 258.875 98.273438 L 79.542969 277.605469 Z M -10.125 187.941406 " clip-rule="nonzero"/></clipPath><clipPath id="id3"><path d="M 109.679688 110.75 L 187 110.75 L 187 265.855469 L 109.679688 265.855469 Z M 109.679688 110.75 " clip-rule="nonzero"/></clipPath></defs><g clip-path="url(#id1)"><g clip-path="url(#id2)"><path fill="#990000" d="M 74.003906 271.699219 C 72.742188 270.269531 71.519531 268.8125 70.324219 267.324219 C 69.128906 265.839844 67.96875 264.324219 66.84375 262.785156 C 65.71875 261.246094 64.628906 259.683594 63.574219 258.09375 C 62.519531 256.507812 61.5 254.894531 60.519531 253.261719 C 59.539062 251.625 58.59375 249.972656 57.6875 248.296875 C 56.777344 246.621094 55.910156 244.921875 55.078125 243.207031 C 54.246094 241.488281 53.457031 239.757812 52.703125 238.007812 C 51.949219 236.253906 51.238281 234.488281 50.566406 232.703125 C 49.890625 230.917969 49.257812 229.121094 48.667969 227.308594 C 48.074219 225.496094 47.523438 223.671875 47.015625 221.835938 C 46.507812 219.996094 46.039062 218.148438 45.609375 216.292969 C 45.1875 214.433594 44.800781 212.566406 44.460938 210.691406 C 44.117188 208.816406 43.816406 206.933594 43.558594 205.042969 C 43.304688 203.15625 43.089844 201.261719 42.917969 199.363281 C 42.746094 197.464844 42.617188 195.5625 42.53125 193.65625 C 42.445312 191.753906 42.402344 189.847656 42.402344 187.941406 C 42.402344 186.035156 42.445312 184.128906 42.53125 182.226562 C 42.617188 180.320312 42.746094 178.417969 42.917969 176.519531 C 43.089844 174.621094 43.304688 172.726562 43.558594 170.835938 C 43.816406 168.949219 44.117188 167.066406 44.460938 165.191406 C 44.800781 163.316406 45.1875 161.449219 45.609375 159.589844 C 46.039062 157.734375 46.507812 155.882812 47.015625 154.046875 C 47.523438 152.210938 48.074219 150.386719 48.667969 148.574219 C 49.257812 146.761719 49.890625 144.960938 50.566406 143.179688 C 51.238281 141.398438 51.949219 139.628906 52.703125 137.878906 C 53.457031 136.125 54.246094 134.390625 55.078125 132.675781 C 55.910156 130.960938 56.777344 129.265625 57.6875 127.585938 C 58.59375 125.910156 59.539062 124.253906 60.519531 122.621094 C 61.5 120.984375 62.519531 119.375 63.574219 117.785156 C 64.628906 116.199219 65.71875 114.636719 66.84375 113.097656 C 67.96875 111.558594 69.128906 110.046875 70.324219 108.558594 C 71.519531 107.074219 72.742188 105.613281 74.003906 104.179688 C 74.332031 103.804688 74.695312 103.464844 75.09375 103.164062 C 75.492188 102.859375 75.914062 102.597656 76.359375 102.378906 C 76.808594 102.15625 77.273438 101.984375 77.757812 101.855469 C 78.238281 101.726562 78.730469 101.648438 79.230469 101.613281 C 79.726562 101.582031 80.226562 101.601562 80.71875 101.664062 C 81.214844 101.730469 81.699219 101.847656 82.171875 102.007812 C 82.644531 102.167969 83.097656 102.375 83.53125 102.625 C 83.960938 102.875 84.363281 103.164062 84.738281 103.496094 C 85.113281 103.824219 85.453125 104.1875 85.757812 104.585938 C 86.0625 104.980469 86.324219 105.40625 86.542969 105.855469 C 86.765625 106.300781 86.941406 106.769531 87.066406 107.25 C 87.195312 107.730469 87.277344 108.222656 87.308594 108.722656 C 87.339844 109.21875 87.324219 109.71875 87.257812 110.214844 C 87.191406 110.707031 87.078125 111.191406 86.917969 111.664062 C 86.753906 112.136719 86.546875 112.589844 86.296875 113.023438 C 86.046875 113.453125 85.757812 113.859375 85.429688 114.234375 C 84.316406 115.492188 83.238281 116.777344 82.191406 118.085938 C 81.140625 119.390625 80.121094 120.726562 79.128906 122.078125 C 78.140625 123.433594 77.179688 124.808594 76.253906 126.207031 C 75.324219 127.605469 74.425781 129.023438 73.5625 130.460938 C 72.699219 131.898438 71.867188 133.355469 71.070312 134.828125 C 70.269531 136.304688 69.503906 137.800781 68.777344 139.308594 C 68.042969 140.816406 67.347656 142.34375 66.683594 143.882812 C 66.023438 145.425781 65.394531 146.980469 64.804688 148.550781 C 64.210938 150.121094 63.65625 151.703125 63.132812 153.296875 C 62.613281 154.894531 62.128906 156.5 61.679688 158.117188 C 61.230469 159.730469 60.820312 161.355469 60.445312 162.992188 C 60.070312 164.628906 59.730469 166.269531 59.429688 167.921875 C 59.128906 169.570312 58.863281 171.226562 58.640625 172.890625 C 58.414062 174.550781 58.222656 176.21875 58.074219 177.890625 C 57.921875 179.5625 57.808594 181.234375 57.734375 182.910156 C 57.65625 184.585938 57.621094 186.265625 57.621094 187.941406 C 57.621094 189.621094 57.65625 191.296875 57.734375 192.972656 C 57.808594 194.648438 57.921875 196.320312 58.074219 197.992188 C 58.222656 199.664062 58.414062 201.328125 58.640625 202.992188 C 58.863281 204.65625 59.128906 206.308594 59.429688 207.960938 C 59.730469 209.613281 60.070312 211.253906 60.445312 212.890625 C 60.820312 214.523438 61.230469 216.152344 61.679688 217.769531 C 62.128906 219.386719 62.613281 220.992188 63.132812 222.585938 C 63.65625 224.179688 64.210938 225.761719 64.804688 227.332031 C 65.394531 228.902344 66.023438 230.457031 66.683594 231.996094 C 67.347656 233.539062 68.042969 235.066406 68.777344 236.574219 C 69.503906 238.085938 70.269531 239.578125 71.070312 241.054688 C 71.867188 242.53125 72.699219 243.984375 73.5625 245.425781 C 74.425781 246.859375 75.324219 248.277344 76.253906 249.675781 C 77.179688 251.074219 78.140625 252.449219 79.128906 253.804688 C 80.121094 255.160156 81.140625 256.488281 82.191406 257.800781 C 83.238281 259.105469 84.316406 260.390625 85.429688 261.648438 C 85.757812 262.023438 86.046875 262.429688 86.296875 262.863281 C 86.546875 263.292969 86.753906 263.746094 86.917969 264.21875 C 87.078125 264.691406 87.191406 265.175781 87.257812 265.671875 C 87.324219 266.167969 87.339844 266.660156 87.308594 267.164062 C 87.277344 267.660156 87.195312 268.148438 87.066406 268.632812 C 86.941406 269.117188 86.765625 269.582031 86.542969 270.03125 C 86.324219 270.480469 86.0625 270.902344 85.757812 271.296875 C 85.453125 271.695312 85.113281 272.058594 84.738281 272.390625 C 84.363281 272.71875 83.960938 273.007812 83.53125 273.257812 C 83.097656 273.507812 82.644531 273.714844 82.171875 273.878906 C 81.699219 274.039062 81.214844 274.152344 80.71875 274.21875 C 80.226562 274.285156 79.726562 274.300781 79.230469 274.265625 C 78.730469 274.238281 78.238281 274.15625 77.757812 274.027344 C 77.273438 273.898438 76.808594 273.726562 76.359375 273.503906 C 75.914062 273.285156 75.492188 273.023438 75.09375 272.71875 C 74.695312 272.414062 74.332031 272.074219 74.003906 271.699219 Z M 74.003906 271.699219 " fill-opacity="1" fill-rule="nonzero"/></g></g><g clip-path="url(#id3)"><path fill="#990000" d="M 187.234375 110.75 C 144.285156 110.75 109.679688 145.347656 109.679688 188.300781 C 109.679688 231.253906 144.285156 265.855469 187.234375 265.855469 C 229.789062 265.855469 264.789062 231.253906 264.789062 188.300781 C 264.789062 145.347656 229.789062 110.75 187.234375 110.75 Z M 187.234375 253.921875 C 151.046875 253.921875 121.613281 224.492188 121.613281 188.300781 C 121.613281 152.109375 151.046875 122.679688 187.234375 122.679688 C 223.425781 122.679688 252.859375 152.109375 252.859375 188.300781 C 252.859375 224.492188 223.425781 253.921875 187.234375 253.921875 Z M 187.234375 253.921875 " fill-opacity="1" fill-rule="nonzero"/></g></svg>