<svg xmlns="http://www.w3.org/2000/svg" xmlns:xlink="http://www.w3.org/1999/xlink" width="500" zoomAndPan="magnify" viewBox="0 0 375 374.999991" height="500" preserveAspectRatio="xMidYMid meet" version="1.0"><defs><clipPath id="id1"><path d="M 42 101 L 87.65625 101 L 87.65625 274 L 42 274 Z M 42 101 " clip-rule="nonzero"/></clipPath><clipPath id="id2"><path d="M -10.125 187.441406 L 169.207031 8.109375 L 258.875 97.777344 L 79.542969 277.109375 Z M -10.125 187.441406 " clip-rule="nonzero"/></clipPath><clipPath id="id3"><path d="M 287.558594 100.875 L 333 100.875 L 333 274 L 287.558594 274 Z M 287.558594 100.875 " clip-rule="nonzero"/></clipPath><clipPath id="id4"><path d="M 385.296875 187.21875 L 205.964844 366.550781 L 116.300781 276.882812 L 295.632812 97.550781 Z M 385.296875 187.21875 " clip-rule="nonzero"/></clipPath><clipPath id="id5"><path d="M 109.679688 110.25 L 264.789062 110.25 L 264.789062 265.355469 L 109.679688 265.355469 Z M 109.679688 110.25 " clip-rule="nonzero"/></clipPath></defs><g clip-path="url(#id1)"><g clip-path="url(#id2)"><path fill="#990000" d="M 74.003906 271.203125 C 72.742188 269.773438 71.519531 268.3125 70.324219 266.824219 C 69.128906 265.339844 67.96875 263.824219 66.84375 262.285156 C 65.71875 260.75 64.628906 259.183594 63.574219 257.597656 C 62.519531 256.007812 61.5 254.398438 60.519531 252.761719 C 59.539062 251.128906 58.59375 249.472656 57.6875 247.796875 C 56.777344 246.121094 55.910156 244.425781 55.078125 242.707031 C 54.246094 240.992188 53.457031 239.257812 52.703125 237.507812 C 51.949219 235.753906 51.238281 233.988281 50.566406 232.203125 C 49.890625 230.421875 49.257812 228.621094 48.667969 226.8125 C 48.074219 224.996094 47.523438 223.171875 47.015625 221.335938 C 46.507812 219.5 46.039062 217.648438 45.609375 215.792969 C 45.1875 213.933594 44.800781 212.070312 44.460938 210.191406 C 44.117188 208.316406 43.816406 206.433594 43.558594 204.546875 C 43.304688 202.65625 43.089844 200.761719 42.917969 198.863281 C 42.746094 196.964844 42.617188 195.0625 42.53125 193.15625 C 42.445312 191.253906 42.402344 189.347656 42.402344 187.441406 C 42.402344 185.535156 42.445312 183.628906 42.53125 181.726562 C 42.617188 179.820312 42.746094 177.921875 42.917969 176.023438 C 43.089844 174.125 43.304688 172.226562 43.558594 170.339844 C 43.816406 168.453125 44.117188 166.566406 44.460938 164.691406 C 44.800781 162.816406 45.1875 160.953125 45.609375 159.089844 C 46.039062 157.234375 46.507812 155.386719 47.015625 153.546875 C 47.523438 151.710938 48.074219 149.886719 48.667969 148.074219 C 49.257812 146.261719 49.890625 144.464844 50.566406 142.683594 C 51.238281 140.898438 51.949219 139.128906 52.703125 137.378906 C 53.457031 135.628906 54.246094 133.894531 55.078125 132.175781 C 55.910156 130.460938 56.777344 128.765625 57.6875 127.085938 C 58.59375 125.410156 59.539062 123.757812 60.519531 122.121094 C 61.5 120.488281 62.519531 118.875 63.574219 117.289062 C 64.628906 115.699219 65.71875 114.136719 66.84375 112.597656 C 67.96875 111.058594 69.128906 109.546875 70.324219 108.058594 C 71.519531 106.574219 72.742188 105.113281 74.003906 103.683594 C 74.332031 103.308594 74.695312 102.96875 75.09375 102.664062 C 75.492188 102.359375 75.914062 102.101562 76.359375 101.878906 C 76.808594 101.65625 77.273438 101.484375 77.757812 101.355469 C 78.238281 101.226562 78.730469 101.148438 79.230469 101.117188 C 79.726562 101.082031 80.226562 101.101562 80.71875 101.164062 C 81.214844 101.234375 81.699219 101.347656 82.171875 101.507812 C 82.644531 101.667969 83.097656 101.875 83.53125 102.125 C 83.960938 102.375 84.363281 102.664062 84.738281 102.996094 C 85.113281 103.324219 85.453125 103.6875 85.757812 104.085938 C 86.0625 104.480469 86.324219 104.90625 86.542969 105.355469 C 86.765625 105.804688 86.941406 106.269531 87.066406 106.75 C 87.195312 107.234375 87.277344 107.726562 87.308594 108.222656 C 87.339844 108.722656 87.324219 109.21875 87.257812 109.714844 C 87.191406 110.210938 87.078125 110.691406 86.917969 111.164062 C 86.753906 111.640625 86.546875 112.089844 86.296875 112.523438 C 86.046875 112.953125 85.757812 113.359375 85.429688 113.734375 C 84.316406 114.992188 83.238281 116.277344 82.191406 117.585938 C 81.140625 118.894531 80.121094 120.226562 79.128906 121.578125 C 78.140625 122.933594 77.179688 124.308594 76.253906 125.707031 C 75.324219 127.105469 74.425781 128.523438 73.5625 129.960938 C 72.699219 131.398438 71.867188 132.855469 71.070312 134.328125 C 70.269531 135.804688 69.503906 137.300781 68.777344 138.808594 C 68.042969 140.316406 67.347656 141.84375 66.683594 143.386719 C 66.023438 144.925781 65.394531 146.480469 64.804688 148.050781 C 64.210938 149.621094 63.65625 151.203125 63.132812 152.796875 C 62.613281 154.394531 62.128906 156 61.679688 157.617188 C 61.230469 159.230469 60.820312 160.859375 60.445312 162.492188 C 60.070312 164.128906 59.730469 165.769531 59.429688 167.421875 C 59.128906 169.074219 58.863281 170.726562 58.640625 172.390625 C 58.414062 174.054688 58.222656 175.71875 58.074219 177.394531 C 57.921875 179.0625 57.808594 180.734375 57.734375 182.410156 C 57.65625 184.085938 57.621094 185.765625 57.621094 187.441406 C 57.621094 189.121094 57.65625 190.796875 57.734375 192.472656 C 57.808594 194.148438 57.921875 195.820312 58.074219 197.492188 C 58.222656 199.164062 58.414062 200.832031 58.640625 202.492188 C 58.863281 204.15625 59.128906 205.8125 59.429688 207.464844 C 59.730469 209.113281 60.070312 210.757812 60.445312 212.390625 C 60.820312 214.027344 61.230469 215.652344 61.679688 217.269531 C 62.128906 218.886719 62.613281 220.492188 63.132812 222.085938 C 63.65625 223.679688 64.210938 225.261719 64.804688 226.832031 C 65.394531 228.402344 66.023438 229.957031 66.683594 231.5 C 67.347656 233.039062 68.042969 234.566406 68.777344 236.074219 C 69.503906 237.585938 70.269531 239.078125 71.070312 240.554688 C 71.867188 242.03125 72.699219 243.488281 73.5625 244.925781 C 74.425781 246.359375 75.324219 247.777344 76.253906 249.175781 C 77.179688 250.574219 78.140625 251.949219 79.128906 253.304688 C 80.121094 254.660156 81.140625 255.992188 82.191406 257.300781 C 83.238281 258.605469 84.316406 259.890625 85.429688 261.148438 C 85.757812 261.523438 86.046875 261.929688 86.296875 262.363281 C 86.546875 262.792969 86.753906 263.246094 86.917969 263.71875 C 87.078125 264.195312 87.191406 264.675781 87.257812 265.171875 C 87.324219 265.667969 87.339844 266.164062 87.308594 266.664062 C 87.277344 267.160156 87.195312 267.652344 87.066406 268.132812 C 86.941406 268.617188 86.765625 269.082031 86.542969 269.53125 C 86.324219 269.980469 86.0625 270.402344 85.757812 270.796875 C 85.453125 271.195312 85.113281 271.558594 84.738281 271.890625 C 84.363281 272.21875 83.960938 272.507812 83.53125 272.761719 C 83.097656 273.007812 82.644531 273.21875 82.171875 273.378906 C 81.699219 273.539062 81.214844 273.652344 80.71875 273.71875 C 80.226562 273.785156 79.726562 273.800781 79.230469 273.769531 C 78.730469 273.738281 78.238281 273.65625 77.757812 273.527344 C 77.273438 273.398438 76.808594 273.226562 76.359375 273.007812 C 75.914062 272.785156 75.492188 272.523438 75.09375 272.222656 C 74.695312 271.917969 74.332031 271.578125 74.003906 271.203125 Z M 74.003906 271.203125 " fill-opacity="1" fill-rule="nonzero"/></g></g><g clip-path="url(#id3)"><g clip-path="url(#id4)"><path fill="#990000" d="M 301.171875 103.457031 C 302.429688 104.890625 303.65625 106.347656 304.847656 107.835938 C 306.042969 109.324219 307.203125 110.835938 308.328125 112.371094 C 309.453125 113.914062 310.542969 115.476562 311.597656 117.0625 C 312.652344 118.652344 313.667969 120.261719 314.652344 121.898438 C 315.636719 123.53125 316.578125 125.1875 317.488281 126.863281 C 318.394531 128.542969 319.261719 130.238281 320.09375 131.953125 C 320.925781 133.667969 321.71875 135.402344 322.46875 137.15625 C 323.222656 138.90625 323.933594 140.671875 324.609375 142.457031 C 325.28125 144.242188 325.914062 146.039062 326.503906 147.851562 C 327.097656 149.660156 327.648438 151.488281 328.15625 153.324219 C 328.667969 155.160156 329.136719 157.007812 329.558594 158.867188 C 329.988281 160.726562 330.371094 162.59375 330.714844 164.46875 C 331.054688 166.34375 331.355469 168.226562 331.609375 170.113281 C 331.867188 172.003906 332.082031 173.898438 332.253906 175.796875 C 332.429688 177.695312 332.558594 179.597656 332.640625 181.5 C 332.726562 183.40625 332.769531 185.3125 332.769531 187.21875 C 332.769531 189.125 332.726562 191.027344 332.640625 192.933594 C 332.558594 194.839844 332.429688 196.742188 332.253906 198.640625 C 332.082031 200.539062 331.867188 202.429688 331.609375 204.320312 C 331.355469 206.210938 331.054688 208.089844 330.714844 209.964844 C 330.371094 211.84375 329.988281 213.710938 329.558594 215.566406 C 329.136719 217.425781 328.667969 219.273438 328.15625 221.109375 C 327.648438 222.949219 327.097656 224.773438 326.503906 226.585938 C 325.914062 228.398438 325.28125 230.195312 324.609375 231.980469 C 323.933594 233.765625 323.222656 235.53125 322.46875 237.28125 C 321.71875 239.035156 320.925781 240.765625 320.09375 242.484375 C 319.261719 244.199219 318.394531 245.894531 317.488281 247.570312 C 316.578125 249.246094 315.636719 250.902344 314.652344 252.539062 C 313.667969 254.171875 312.652344 255.785156 311.597656 257.371094 C 310.542969 258.960938 309.453125 260.523438 308.328125 262.0625 C 307.203125 263.601562 306.042969 265.113281 304.847656 266.601562 C 303.65625 268.089844 302.429688 269.546875 301.171875 270.976562 C 300.839844 271.351562 300.476562 271.691406 300.082031 271.996094 C 299.683594 272.296875 299.261719 272.5625 298.8125 272.78125 C 298.363281 273 297.898438 273.175781 297.414062 273.304688 C 296.933594 273.433594 296.441406 273.515625 295.945312 273.546875 C 295.445312 273.574219 294.949219 273.5625 294.453125 273.492188 C 293.957031 273.429688 293.476562 273.316406 293 273.152344 C 292.527344 272.992188 292.074219 272.785156 291.644531 272.535156 C 291.210938 272.285156 290.804688 271.992188 290.429688 271.664062 C 290.054688 271.335938 289.71875 270.972656 289.414062 270.574219 C 289.109375 270.175781 288.847656 269.753906 288.628906 269.308594 C 288.410156 268.859375 288.234375 268.394531 288.105469 267.910156 C 287.976562 267.425781 287.898438 266.9375 287.863281 266.4375 C 287.832031 265.9375 287.851562 265.441406 287.917969 264.949219 C 287.980469 264.453125 288.097656 263.96875 288.257812 263.496094 C 288.417969 263.023438 288.625 262.570312 288.875 262.136719 C 289.125 261.703125 289.414062 261.300781 289.746094 260.925781 C 290.851562 259.667969 291.933594 258.382812 292.984375 257.074219 C 294.035156 255.765625 295.054688 254.4375 296.042969 253.078125 C 297.035156 251.726562 297.992188 250.351562 298.921875 248.953125 C 299.851562 247.554688 300.746094 246.140625 301.609375 244.699219 C 302.476562 243.261719 303.304688 241.804688 304.105469 240.328125 C 304.902344 238.851562 305.667969 237.363281 306.398438 235.851562 C 307.128906 234.339844 307.828125 232.816406 308.488281 231.273438 C 309.152344 229.734375 309.777344 228.175781 310.371094 226.605469 C 310.960938 225.039062 311.519531 223.453125 312.039062 221.859375 C 312.5625 220.265625 313.046875 218.660156 313.492188 217.042969 C 313.941406 215.425781 314.355469 213.800781 314.730469 212.167969 C 315.105469 210.53125 315.441406 208.886719 315.742188 207.238281 C 316.046875 205.585938 316.308594 203.929688 316.535156 202.265625 C 316.761719 200.605469 316.949219 198.9375 317.101562 197.269531 C 317.253906 195.597656 317.363281 193.921875 317.441406 192.246094 C 317.515625 190.570312 317.554688 188.894531 317.554688 187.21875 C 317.554688 185.542969 317.515625 183.863281 317.441406 182.1875 C 317.363281 180.511719 317.253906 178.839844 317.101562 177.167969 C 316.949219 175.496094 316.761719 173.828125 316.535156 172.167969 C 316.308594 170.507812 316.046875 168.847656 315.742188 167.199219 C 315.441406 165.546875 315.105469 163.90625 314.730469 162.269531 C 314.355469 160.632812 313.941406 159.007812 313.492188 157.394531 C 313.046875 155.777344 312.5625 154.171875 312.039062 152.574219 C 311.519531 150.980469 310.960938 149.398438 310.371094 147.828125 C 309.777344 146.257812 309.152344 144.703125 308.488281 143.160156 C 307.828125 141.621094 307.128906 140.09375 306.398438 138.585938 C 305.667969 137.074219 304.902344 135.582031 304.105469 134.105469 C 303.304688 132.632812 302.476562 131.175781 301.609375 129.738281 C 300.746094 128.296875 299.851562 126.878906 298.921875 125.484375 C 297.992188 124.085938 297.035156 122.707031 296.042969 121.355469 C 295.054688 120 294.035156 118.667969 292.984375 117.363281 C 291.933594 116.050781 290.851562 114.769531 289.746094 113.507812 C 289.414062 113.132812 289.125 112.730469 288.875 112.300781 C 288.625 111.867188 288.417969 111.414062 288.257812 110.941406 C 288.097656 110.46875 287.980469 109.984375 287.917969 109.488281 C 287.851562 108.996094 287.832031 108.496094 287.863281 108 C 287.898438 107.5 287.976562 107.007812 288.105469 106.523438 C 288.234375 106.042969 288.410156 105.578125 288.628906 105.128906 C 288.847656 104.683594 289.109375 104.257812 289.414062 103.863281 C 289.71875 103.464844 290.054688 103.101562 290.429688 102.773438 C 290.804688 102.441406 291.210938 102.152344 291.644531 101.902344 C 292.074219 101.648438 292.527344 101.445312 293 101.285156 C 293.476562 101.121094 293.957031 101.007812 294.453125 100.941406 C 294.949219 100.875 295.445312 100.859375 295.945312 100.890625 C 296.441406 100.921875 296.933594 101.003906 297.414062 101.132812 C 297.898438 101.261719 298.363281 101.433594 298.8125 101.65625 C 299.261719 101.875 299.683594 102.136719 300.082031 102.441406 C 300.476562 102.742188 300.839844 103.082031 301.171875 103.457031 Z M 301.171875 103.457031 " fill-opacity="1" fill-rule="nonzero"/></g></g><g clip-path="url(#id5)"><path fill="#990000" d="M 187.234375 110.25 C 144.285156 110.25 109.679688 144.851562 109.679688 187.800781 C 109.679688 230.757812 144.285156 265.355469 187.234375 265.355469 C 229.789062 265.355469 264.789062 230.757812 264.789062 187.800781 C 264.789062 144.851562 229.789062 110.25 187.234375 110.25 Z M 187.234375 253.425781 C 151.046875 253.425781 121.613281 223.996094 121.613281 187.800781 C 121.613281 151.613281 151.046875 122.179688 187.234375 122.179688 C 223.425781 122.179688 252.859375 151.613281 252.859375 187.800781 C 252.859375 223.996094 223.425781 253.425781 187.234375 253.425781 Z M 187.234375 253.425781 " fill-opacity="1" fill-rule="nonzero"/></g></svg>